<?xml version="1.0" encoding="UTF-8"?>
<svg id="Layer_2" data-name="Layer 2" xmlns="http://www.w3.org/2000/svg" viewBox="0 0 34.18 22.58">
  <defs>
    <style>
      .cls-1 {
        fill-rule: evenodd;
      }
    </style>
  </defs>
  <g id="Layer_1-2" data-name="Layer 1">
    <path class="cls-1" d="M30.6,11.76c.34-.19.69-.51,1.04-.94.36-.45.61-.86.75-1.22.14-.37.09-.65-.16-.84-.27-.22-.58-.24-.92-.05-.34.19-.68.51-1.03.95-.37.44-.62.84-.75,1.21-.14.37-.08.65.18.86.25.22.55.23.89.03ZM26.5,12.59c-.74-.74-1.1-1.69-1.1-2.86,0-.82.23-1.59.69-2.3.46-.71,1.06-1.28,1.81-1.72.75-.44,1.55-.65,2.4-.65.74,0,1.4.17,1.98.51.58.34,1.04.81,1.38,1.4.34.59.51,1.26.51,2.01,0,.86-.22,1.65-.65,2.37s-1.01,1.29-1.74,1.72c-.73.43-1.53.64-2.4.64-1.19,0-2.15-.37-2.89-1.1ZM24.05,22.58c-.59,0-1.06-.17-1.42-.51-.36-.34-.54-.79-.54-1.35v-7.52c.91.52,1.74.91,2.49,1.16.76.25,1.56.41,2.4.49v5.88c0,.57-.18,1.02-.54,1.35-.36.34-.84.51-1.43.51h-.96ZM22.23,5.43c.24-.03.43-.14.57-.33.14-.18.2-.39.19-.61-.02-.22-.12-.4-.3-.55l-1.21-.99c-.18-.14-.39-.21-.62-.19-.23.01-.42.12-.57.32-.14.18-.2.38-.18.6.02.22.12.4.31.56l1.18,1c.19.16.41.22.64.19ZM26.48.77c1.11.52,2.01,1.29,2.69,2.32.02.03.03.05.05.06l.05.05c-1.06.18-2.03.59-2.91,1.22-.87.63-1.57,1.41-2.09,2.33-.52.93-.78,1.92-.78,2.97,0,.43.04.85.12,1.25.08.4.19.78.34,1.13-.48-.12-.93-.26-1.34-.44-.41-.18-.8-.37-1.18-.59-1.14-.67-2.01-1.5-2.61-2.5-.6-1-.9-2.11-.9-3.31,0-1.03.22-1.94.65-2.73.43-.79,1.04-1.41,1.82-1.86.78-.45,1.69-.68,2.72-.69,1.12,0,2.24.26,3.35.77ZM13.81,4.24c.18-.16.28-.34.3-.56.02-.22-.05-.42-.19-.6-.15-.2-.34-.31-.57-.32-.23-.01-.44.05-.62.19l-1.21.99c-.17.15-.27.34-.29.55-.02.22.04.42.18.61.14.19.33.3.57.33.24.03.45-.04.64-.19l1.2-1ZM7.77,22.07c-.36-.34-.54-.79-.54-1.35v-5.88c.83-.08,1.63-.24,2.38-.49.76-.25,1.59-.64,2.49-1.16v7.52c0,.57-.18,1.02-.54,1.35-.36.34-.83.51-1.42.51h-.96c-.59,0-1.06-.17-1.42-.51ZM13.8.7c.78.45,1.39,1.07,1.83,1.85.44.78.65,1.69.65,2.73,0,1.2-.31,2.3-.92,3.29-.61.99-1.48,1.83-2.59,2.52-.37.23-.76.43-1.17.6-.41.17-.86.31-1.33.42.14-.36.25-.74.33-1.13.08-.4.12-.82.12-1.25,0-1.06-.26-2.05-.78-2.97-.52-.93-1.22-1.7-2.09-2.33-.87-.63-1.84-1.03-2.89-1.22,0-.02.02-.03.04-.05.02-.02.04-.04.04-.06.68-1.03,1.58-1.8,2.69-2.32,1.11-.52,2.23-.77,3.36-.77,1.03.02,1.94.25,2.72.7ZM4.65,10.86c-.14-.37-.39-.77-.75-1.21-.36-.44-.7-.76-1.04-.95-.34-.19-.64-.18-.9.05-.26.19-.31.47-.17.84.15.37.4.77.76,1.22.34.43.69.75,1.03.94.35.2.65.19.9-.03.26-.21.32-.5.18-.86ZM2.38,13.05c-.72-.43-1.3-1-1.73-1.72-.43-.72-.65-1.51-.65-2.37,0-.75.17-1.42.51-2.01.34-.59.8-1.06,1.39-1.4.58-.34,1.24-.51,1.97-.51.86,0,1.67.22,2.41.65.74.44,1.35,1.01,1.81,1.72.46.71.69,1.48.69,2.3,0,1.17-.37,2.13-1.1,2.86-.74.73-1.7,1.1-2.89,1.1-.88,0-1.68-.21-2.41-.64Z"/>
  </g>
</svg>