<?xml version="1.0" encoding="UTF-8"?>
<svg id="Layer_2" data-name="Layer 2" xmlns="http://www.w3.org/2000/svg" viewBox="0 0 390.23 390.23">
  <g id="Layer_1-2" data-name="Layer 1">
    <g>
      <path d="M139.95,216.51c-23.77,0-37.6,18.31-41.5,36.43-3.12,17.34,2.92,35.65,26.69,35.65s37.99-18.31,41.11-35.65c3.9-18.12-1.95-36.43-26.3-36.43Z"/>
      <polygon points="204.83 91.57 194.59 109.8 207.39 109.8 204.98 91.57 204.83 91.57"/>
      <path d="M137.21,102.19c1.81-8.51-1.05-13.33-10.77-13.33h-12.2l-5.72,26.66h12.2c9.71,0,14.68-4.82,16.49-13.33Z"/>
      <path d="M323.04,0H67.19C30.23,0,0,30.23,0,67.19v255.85c0,36.95,30.23,67.19,67.19,67.19h255.85c36.95,0,67.19-30.23,67.19-67.19V67.19c0-36.95-30.23-67.19-67.19-67.19ZM95.87,75.31h41.34c18.22,0,26.36,7.08,22.14,26.88-3.99,18.9-15.29,26.88-33.13,26.88h-41.79l11.45-53.77ZM218.85,252.94c-9.55,45-44.81,70.72-101.7,70.72s-80.85-25.72-71.31-70.72c10.33-45.78,45.59-71.5,102.09-71.5s81.24,25.72,70.92,71.5ZM210.25,129.08l-.98-6.17h-22.14l-3.54,6.17h-22.59l34.34-53.77h26.05l11.45,53.77h-22.59ZM266.27,75.31l5.72,21.08,14.76-21.08h24.25l-32.08,38.63-3.24,15.14h-21.24l3.24-15.14-15.66-38.63h24.25ZM320.94,320.16h-51.04l16.37-76.96h-41.3l7.21-33.9h8.18c23.96-.39,37.6-5.65,48.32-24.35h41.11l-28.83,135.21Z"/>
    </g>
  </g>
</svg>