<?xml version="1.0" encoding="UTF-8"?>
<svg id="Layer_2" data-name="Layer 2" xmlns="http://www.w3.org/2000/svg" viewBox="0 0 200.89 353.67">
  <defs>
    <style>
      .cls-1 {
        fill-rule: evenodd;
      }
    </style>
  </defs>
  <g id="Layer_1-2" data-name="Layer 1">
    <path class="cls-1" d="M200.68,317.54c.75,23.89-16.34,35.54-46.95,36.03s-82.28-1.15-111.47-.69c-29.19.47-41.06-16.08-41.63-39.65C-1.18,238.6,1.48,56.3,1.57,40.82,1.72,14.12,12.2,1.24,35.29.87,53.91.57,139.74-.11,163.6.01c27.22.15,36.89,17.92,37.28,42.65.21,13.68-2.47,202.89-.21,274.88ZM146.77,26.64c.42,9.92-2.86,24.28-14.87,24.28s-55.36.69-61.44.69c-14.32,0-18.49-14.96-18.49-23.85-17.2.13-26.26,1.1-26.26,1.1l5.29,294.53,140.28-.35,1.33-296.21s-4.4-.36-25.84-.19Z"/>
  </g>
</svg>