<?xml version="1.0" encoding="UTF-8"?>
<svg id="Layer_2" data-name="Layer 2" xmlns="http://www.w3.org/2000/svg" viewBox="0 0 228.36 361.77">
  <g id="Layer_1-2" data-name="Layer 1">
    <path d="M228.36,114.18C228.36,51.22,177.14,0,114.18,0S0,51.22,0,114.18c0,24.88,8.01,47.93,21.57,66.71C8.01,199.66,0,222.71,0,247.59c0,62.96,51.22,114.18,114.18,114.18s114.18-51.22,114.18-114.18c0-24.88-8.01-47.93-21.57-66.7,13.56-18.78,21.57-41.82,21.57-66.71ZM136.01,349.46c-.7.15-1.41.29-2.11.43l82.58-82.58c-.14.71-.28,1.41-.43,2.11l-80.04,80.04ZM117.76,351.7c-.86.03-1.72.05-2.59.06l103.18-103.18c0,.87-.03,1.73-.06,2.59l-100.53,100.53ZM102.35,351.1c-1-.11-2-.24-2.99-.38l117.94-117.94c.14.99.27,1.99.38,2.99l-115.33,115.33ZM88.8,348.64c-1.11-.28-2.22-.57-3.32-.89l128.86-128.86c.32,1.1.61,2.21.89,3.32l-126.43,126.43ZM76.66,344.78c-1.21-.47-2.4-.96-3.59-1.47l136.83-136.83c.51,1.18,1,2.38,1.47,3.59l-134.71,134.71ZM65.66,339.76c-1.28-.68-2.54-1.38-3.79-2.1l142.37-142.37c.73,1.25,1.43,2.51,2.1,3.79l-140.69,140.69ZM55.67,333.74c-1.33-.91-2.65-1.85-3.93-2.81l115.87-115.87c7.88-4.19,15.22-9.28,21.87-15.13L55.67,333.74ZM10,247.59c0-3.46.17-6.88.5-10.25l33.3-33.3c2.53,1.99,5.16,3.87,7.85,5.64l-41.59,41.59c-.04-1.22-.07-2.44-.07-3.67ZM14.86,216.14l19.95-19.95c2.43,2.35,4.96,4.6,7.59,6.73l-31.58,31.58c.8-6.31,2.16-12.45,4.04-18.36ZM84.18,182.2c0-16.57,13.43-30,30-30s30,13.43,30,30-13.43,30-30,30-30-13.43-30-30ZM33.96,195.35l-18.26,18.26c3.04-8.77,7.21-17.02,12.35-24.56,1.89,2.17,3.87,4.27,5.91,6.3ZM53.71,210.99c2.61,1.64,5.29,3.17,8.04,4.6l-50.16,50.16c-.65-3.7-1.1-7.46-1.35-11.28l43.48-43.48ZM64.55,217c2.68,1.3,5.42,2.49,8.21,3.58l-58.04,58.04c-.96-3.06-1.77-6.18-2.44-9.35l52.28-52.28ZM76.46,221.95c2.75.96,5.54,1.83,8.38,2.58l-65.7,65.7c-1.15-2.55-2.2-5.16-3.14-7.82l60.46-60.46ZM89.58,225.68c2.82.62,5.67,1.14,8.56,1.55l-73.52,73.52c-1.27-2.13-2.46-4.31-3.58-6.53l68.54-68.54ZM104.2,227.92c2.92.25,5.87.4,8.84.43l-81.98,81.98c-1.34-1.77-2.62-3.58-3.84-5.43l76.97-76.98ZM120.8,228.16c3.15-.18,6.27-.49,9.35-.93l-91.76,91.76c-1.36-1.45-2.69-2.93-3.97-4.46l86.38-86.38ZM140.53,225.28c3.63-.86,7.19-1.89,10.67-3.09l-104.61,104.61c-1.36-1.16-2.69-2.36-3.99-3.59l97.93-97.93ZM10,114.18C10,56.73,56.73,10,114.18,10s104.18,46.73,104.18,104.18c0,21.69-6.66,41.84-18.05,58.54-20.95-24.07-51.79-39.31-86.13-39.31s-65.18,15.24-86.13,39.31c-11.38-16.7-18.05-36.85-18.05-58.54ZM200.33,189.08l-.4.4c.12-.14.25-.28.38-.42,0,0,.01.02.02.03Z"/>
  </g>
</svg>