<?xml version="1.0" encoding="UTF-8"?>
<svg id="Layer_2" data-name="Layer 2" xmlns="http://www.w3.org/2000/svg" viewBox="0 0 256.63 332.67">
  <g id="Capa_1" data-name="Capa 1">
    <g>
      <path d="M202.16,0H54.46C24.43,0,0,24.43,0,54.47v223.74c0,30.03,24.43,54.46,54.46,54.46h147.7c30.03,0,54.46-24.43,54.47-54.46V54.47c0-30.03-24.43-54.47-54.46-54.47ZM229.41,54.47v223.74c0,15.02-12.22,27.25-27.25,27.25H54.46c-15.02,0-27.25-12.22-27.25-27.25V54.47c0-15.02,12.22-27.25,27.25-27.25h147.7c15.02,0,27.25,12.22,27.25,27.25Z"/>
      <path d="M128.31,40.03c-6.04,0-10.95,4.91-10.95,10.95s4.91,10.95,10.95,10.95,10.95-4.91,10.95-10.95-4.91-10.95-10.95-10.95Z"/>
    </g>
  </g>
</svg>