<?xml version="1.0" encoding="UTF-8"?>
<svg id="Layer_2" data-name="Layer 2" xmlns="http://www.w3.org/2000/svg" viewBox="0 0 17.06 9.11">
  <g id="Layer_1-2" data-name="Layer 1">
    <path d="M4.08,9.11c-1.97,0-3.05-.3-3.62-1C-.04,7.49-.13,6.53.18,5.08l.02-.1h3.64l-.03.15c-.12.54-.21,1.02-.13,1.29.05.21.18.35.65.35.66,0,1.01-.36,1.18-1.23L6.69,0h3.64l-.37,1.75,2.19-1.75h4.91l-4.75,3.47,3.09,5.34h-4.79l-1.51-3.03c-.53,2.06-1.63,3.33-5.01,3.33ZM.4,5.23c-.27,1.32-.19,2.19.25,2.73.51.63,1.54.9,3.42.9,3.4,0,4.35-1.27,4.84-3.47l.08-.34,1.76,3.51h4.2l-2.98-5.16L16.29.25h-4.06l-2.67,2.13.45-2.13h-3.13l-1.14,5.35c-.2.99-.64,1.43-1.43,1.43-.33,0-.77-.06-.89-.54-.08-.3-.01-.73.1-1.26H.4Z"/>
  </g>
</svg>