<?xml version="1.0" encoding="UTF-8"?>
<svg id="Layer_2" data-name="Layer 2" xmlns="http://www.w3.org/2000/svg" viewBox="0 0 47.48 23.81">
  <g id="Layer_1-2" data-name="Layer 1">
    <g>
      <path d="M5.07,0h24.11l-1.23,5.8h-14.7l-.77,3.63h13.54l-1.23,5.8h-13.54l-1.83,8.57H0L5.07,0Z"/>
      <path d="M39.4,0c6.5,0,8.77,1.87,7.9,5.9-.9,4.3-3.97,6.17-10.47,6.17s-8.77-1.87-7.87-6.17c.87-4.03,3.9-5.9,10.44-5.9ZM37.64,8.27c1.83,0,2.97-.93,3.27-2.37.27-1.17-.47-2.1-2.3-2.1s-2.97.93-3.23,2.1c-.3,1.43.43,2.37,2.27,2.37Z"/>
    </g>
  </g>
</svg>